<?xml version="1.0" encoding="utf-8"?>
<!-- Generator: Adobe Illustrator 18.1.1, SVG Export Plug-In . SVG Version: 6.00 Build 0)  -->
<!DOCTYPE svg PUBLIC "-//W3C//DTD SVG 1.1//EN" "http://www.w3.org/Graphics/SVG/1.1/DTD/svg11.dtd">
<svg version="1.1" xmlns="http://www.w3.org/2000/svg" xmlns:xlink="http://www.w3.org/1999/xlink" x="0px" y="0px"
	 viewBox="0 0 512 512" enable-background="new 0 0 512 512" xml:space="preserve">
<g id="svg">
	<g>
		<path d="M215.9,209.4v-66.7H64v66.7H16.3v163h480v-163H215.9z M67.6,146.1h144.9V317H67.6V146.1z M492.5,368H20.8V213.7H64v106.7
			h151.8V213.7h276.6V368z"/>
	</g>
	<g>
		<path d="M163.5,166.4l-47,0.1H88.1v109.1h104V166.3L163.5,166.4z M142.8,181.9h7.6l1.2,0.1l1.1,0.1l1.1,0.1l1.1,0.1l1,0.2l1.1,0.3
			l1,0.3l1,0.3l1,0.4l1,0.4l1,0.4l0.9,0.5l0.7,0.3l0.2,0.1l0.8,0.5l0.8,0.6l0.8,0.6l0.8,0.7l0.7,0.8l0.7,0.8l0.6,0.8l0.6,0.8
			l0.5,0.9l0.5,1l0.5,1l0.3,1l0.3,1.1l0.3,1.1l0.2,1.2l0.1,1.2l0.1,1.2l0.1,1.3l-0.1,1.2l-0.1,1.2l-0.1,1.2l-0.2,1.1l-0.3,1.1
			l-0.3,1l-0.3,1l-0.4,1l-0.5,1l-0.5,0.8l-0.5,0.8l-0.6,0.8l-0.7,0.8l-0.7,0.8l-0.7,0.7l-0.8,0.6l-0.8,0.5l-0.9,0.6l-0.3,0.1
			l-0.6,0.3l-1.8,1l-1,0.4l-1,0.3l-1,0.3l-1,0.3l-1,0.2l-1.1,0.2l-1.1,0.2l-1.1,0.1l-1.2,0.1l-1.1,0.1h-7.6V181.9z M130.8,262.5
			h-28.6v-80.6h28.6V262.5z M142.8,262.6v-39l20.7,19.4l20.6,19.5H142.8z"/>
		<path d="M187.2,295.2v-4.5c1.3-0.4,2-1.6,2-3.4c0-1-0.1-1.6-0.4-2.1c-0.3-0.5-0.7-0.8-1.1-1c-0.1,0-0.3-0.1-0.5-0.1v-1.5h0.6
			c1.2,0,2.1,0.1,2.7,0.3c0.6,0.2,1.2,0.6,1.6,1.1c0.7,0.7,1,1.6,1,2.7c0,1.4-0.3,2.5-1.2,3.2c-0.8,0.7-1.8,1.2-2.8,1.4
			c0.6,1,1.2,1.9,1.6,2.7c0.5,0.8,1.2,1.9,2.1,3.2c0.9,1.4,1.5,2.3,1.9,2.9c-0.8-0.1-1.6-0.1-2.3-0.1c-0.7,0-1.5,0-2.4,0.1
			c-0.5-0.9-1.1-1.9-1.7-3.2C187.8,296.4,187.5,295.8,187.2,295.2z M187.2,282.7v1.5c-0.3-0.1-0.8-0.1-1.2-0.1h-0.9v6.9
			c0.1,0,0.3,0,0.6,0c0.5,0,1-0.1,1.4-0.2v4.5c-0.2-0.3-0.4-0.7-0.5-1c-0.4-0.7-0.8-1.4-1.3-2.2h-0.2v8.2c-0.8-0.1-1.4-0.1-1.9-0.1
			c-0.5,0-1.2,0-1.9,0.1v-17.6H187.2L187.2,282.7z M168.8,300.6v-1.5c1.4-0.1,2.5-0.5,3.3-1.4c0.8-1,1.4-2,1.7-3.3
			c0.3-1.2,0.5-2.4,0.5-3.5c0-1.4-0.2-2.6-0.6-3.7c-0.4-1.1-1-1.9-1.9-2.5c-0.8-0.6-1.7-0.9-2.8-0.9l0,0c-0.1,0-0.1,0-0.2,0v-1.5
			h0.1c1.6,0,3.1,0.3,4.3,0.8c1.2,0.5,2.3,1.2,3,2c0.8,0.8,1.4,1.8,1.8,2.9c0.4,1.1,0.6,2.3,0.6,3.5c0,1.4-0.3,2.7-0.8,3.8
			c-0.5,1.1-1.2,2.1-2.1,2.8c-1,0.8-2,1.4-3.2,1.9C171.4,300.2,170.1,300.5,168.8,300.6z M168.8,282.2v1.5c-1.9,0.1-3.2,0.9-4.1,2.4
			c-1,1.6-1.4,3.6-1.4,6.1c0,1.4,0.3,2.6,0.8,3.6c0.5,1,1.1,1.9,1.9,2.3c0.8,0.5,1.6,0.8,2.6,0.8c0.1,0,0.1,0,0.2,0v1.5
			c-0.1,0-0.2,0-0.3,0c-1.3,0-2.7-0.2-4.1-0.8c-1.4-0.5-2.7-1.4-3.8-2.7c-1.1-1.3-1.6-3.1-1.6-5.3c0-0.1,0.1-0.2,0.1-0.3
			c0-1.1,0.2-2.2,0.6-3.3c0.3-1.1,0.9-2.1,1.7-3c0.8-0.9,1.8-1.6,3-2.2C165.6,282.6,167.1,282.3,168.8,282.2L168.8,282.2z
			 M122.6,294.9v-1.6h2.3l-2.3-6l-0.1,0.1v-4.9l0.1-0.1c0.1,0.1,0.3,0.1,0.4,0.1c0.2,0,0.3,0,0.5,0.1c0.6-0.1,1-0.1,1-0.1l7.1,17.8
			c-0.3,0-0.7,0-1.2-0.1c-0.6,0-0.9,0-1.2,0c-0.2,0-0.5,0-1,0c-0.5,0.1-0.8,0.1-1,0.1c-0.5-1.7-1.2-3.5-1.8-5.3H122.6L122.6,294.9z
			 M134.1,282.7c0.7,0,1.3,0.1,1.9,0.1c0.1,0,0.3,0,0.8-0.1c0.5,0,0.9-0.1,1.2-0.1v15.6c1.6,0,3.6-0.1,5.9-0.3
			c-0.1,0.3-0.1,0.6-0.2,1.1c0,0.3,0.1,0.7,0.1,1.1h-9.7V282.7L134.1,282.7z M149.2,300.2v-15.7c-1.7,0-3.3,0.1-4.7,0.4
			c0-0.1,0-0.3,0-0.5c0.1-0.2,0.1-0.3,0.1-0.5c0-0.1,0-0.3-0.1-0.5c0-0.3,0-0.5,0-0.6h13.1c0,0.4-0.1,0.8-0.1,1.2
			c0.1,0.4,0.1,0.8,0.1,1c-2.1-0.3-3.6-0.4-4.5-0.4v15.7c-0.3,0-0.6,0-1-0.1c-0.4,0-0.8,0-1,0c-0.2,0-0.6,0-0.9,0
			C149.7,300.2,149.4,300.2,149.2,300.2z M94.3,282.7h0.5c1.2,0,2.1,0.1,2.7,0.3c0.6,0.2,1.2,0.6,1.6,1.1c0.7,0.7,1.1,1.6,1.1,2.7
			c0,1.4-0.4,2.5-1.2,3.2c-0.8,0.7-1.7,1.2-2.8,1.4c0.6,1,1.2,1.9,1.6,2.7c0.6,0.8,1.2,1.9,2.1,3.2c0.9,1.4,1.5,2.3,1.9,2.9
			c-0.8-0.1-1.6-0.1-2.3-0.1c-0.7,0-1.5,0-2.4,0.1c-0.5-0.9-1-1.9-1.7-3.2c-0.4-0.8-0.8-1.4-1.1-1.9v-4.5c1.3-0.4,2-1.6,2-3.4
			c0-1-0.1-1.6-0.4-2.1c-0.3-0.5-0.6-0.8-1.1-1c-0.1,0-0.3-0.1-0.5-0.1V282.7L94.3,282.7z M122.6,282.6v4.9l-2.3,5.8h2.3v1.6h-3
			c-0.1,0.3-0.3,0.9-0.7,1.7c-0.3,0.9-0.5,1.6-0.7,2.1c-0.2,0.5-0.3,1-0.5,1.4c-0.1,0-0.3,0-0.6-0.1c-0.3,0-0.5,0-0.6,0
			c-0.1,0-0.3,0-0.5,0c-0.3,0.1-0.5,0.1-0.6,0.1L122.6,282.6L122.6,282.6z M104.1,300.2v-17.5h9.8c-0.1,0.3-0.1,0.6-0.2,1.2
			c0,0.2,0.1,0.5,0.1,1c-1.7-0.2-3.4-0.3-5-0.3H108v5.5h3.4c1,0,1.8-0.1,2.5-0.3c-0.1,0.3-0.1,0.5-0.1,0.7c0,0.2,0,0.4-0.1,0.6
			c0.1,0.3,0.1,0.7,0.2,1c-0.8-0.1-1.9-0.3-3.2-0.3H108v6.5c2.1,0,4.1-0.1,6-0.3c-0.1,0.4-0.2,0.8-0.2,1.2c0.1,0.3,0.1,0.6,0.1,1
			H104.1z M88.4,300.3v-17.6h5.9v1.5c-0.3-0.1-0.8-0.1-1.2-0.1h-0.9v6.9c0.1,0,0.3,0,0.6,0c0.5,0,1-0.1,1.4-0.2v4.5
			c-0.2-0.3-0.4-0.7-0.6-1c-0.4-0.7-0.8-1.4-1.3-2.2h-0.2v8.2c-0.8-0.1-1.4-0.1-1.9-0.1C89.8,300.2,89.2,300.2,88.4,300.3z"/>
		<g>
			<path d="M198.6,275.4c-2.2,0-3.9,1.8-3.9,3.9s1.8,3.9,3.9,3.9c2.2,0,3.9-1.8,3.9-3.9S200.8,275.4,198.6,275.4z M198.6,282.6
				c-1.8,0-3.3-1.5-3.3-3.3s1.5-3.3,3.3-3.3s3.3,1.5,3.3,3.3S200.4,282.6,198.6,282.6z"/>
			<g>
				<path d="M198.1,279.8v1.6h-0.7v-4.1h1.2c0.5,0,0.9,0.1,1.2,0.3c0.3,0.2,0.4,0.5,0.4,0.9c0,0.5-0.3,0.9-0.8,1.1l1.2,1.8h-0.8
					l-1-1.6H198.1z M198.1,279.2h0.5c0.3,0,0.5-0.1,0.7-0.2s0.2-0.3,0.2-0.5c0-0.2-0.1-0.4-0.2-0.5c-0.2-0.1-0.4-0.2-0.7-0.2h-0.4
					V279.2z"/>
			</g>
		</g>
	</g>
	<g>
		<path d="M288.8,257.1l4.4,41.8l19.2-41.8h26.5l-11.8,67h-19.8c1.3-7.7,3.3-18,5.7-30.8l3.4-12.2h-0.1l-19.9,43h-15.2l-4.8-43h-0.2
			l-0.7,9.4c-0.8,6.9-2.6,18-5.5,33.6h-19.5l11.7-67H288.8L288.8,257.1z M351.3,257.1h22l-9,51.4h30.1l-2.7,15.6h-52.2L351.3,257.1
			L351.3,257.1z M444.3,276.6c0-3.8-2.7-5.8-8.2-5.8c-4.3,0-6.8,1.3-7.3,3.6c0,1.3,0.4,2.2,1.3,3.1c0.8,0.8,1.9,1.5,3.3,2.1
			c1.3,0.6,2.9,1.1,4.8,1.6c1.7,0.4,3.4,0.8,5,1.3c4.1,1,7.7,2.3,10.5,3.8c2.9,1.4,5.1,3.2,6.6,5.3c1.5,2.1,2.3,4.6,2.3,7.6
			c0,0.4,0,1-0.1,2c-0.1,1-0.1,1.6-0.2,2c-0.8,4.1-2.3,7.7-4.5,10.7c-2.3,2.9-5,5.3-8.2,7.1c-3.3,1.7-6.8,3.1-10.6,3.9
			c-3.8,0.8-7.8,1.2-11.7,1.2c-5,0-9.5-0.8-13.5-2.4c-3.9-1.7-7.1-4-9.2-7.1c-2.2-3-3.4-6.6-3.4-10.6c0-0.6,0.1-1.4,0.2-2.5h21.1
			c0,2.7,0.9,4.5,2.7,5.6c1.8,1,3.9,1.5,6.3,1.5c5.5-0.2,8.5-1.7,9.3-4.5c0.1-0.5,0.1-0.8,0.1-1.1c0-1-0.5-1.9-1.5-2.7
			c-1-0.7-2.2-1.4-3.8-1.9c-1.5-0.5-3.6-1.2-6.6-2c-4.7-1.1-8.5-2.3-11.5-3.6c-3-1.3-5.5-3.1-7.4-5.4c-1.9-2.3-2.9-5.2-2.9-8.9
			c0.3-2.5,0.5-4.1,0.6-4.8c0.7-3.8,2.4-7.3,5.3-10.4c2.9-3.1,6.6-5.6,11.3-7.3c4.7-1.7,10.1-2.6,16-2.6c3.5,0,6.7,0.3,9.6,1
			c2.9,0.7,5.6,1.9,7.9,3.5c2.2,1.6,4.1,3.8,5.4,6.6c1.3,2.8,2,6.2,2,10.1H444.3z"/>
		<g>
			<path d="M271.8,239.2h3l-2.1,10.1h-2l1.4-6.8c0-0.2,0.1-0.5,0.2-0.8c0.1-0.4,0.1-0.6,0.2-0.8l-3.7,8.5h-2.1l-0.1-8.5
				c0,0.2-0.1,0.5-0.2,0.8c-0.1,0.4-0.1,0.6-0.2,0.8l-1.4,6.8h-2l2.1-10.1h3.1l0.1,8L271.8,239.2z"/>
			<path d="M277.1,239.2h2.1l-1.3,6.2c-0.1,0.7-0.2,1.2-0.1,1.5c0.1,0.6,0.6,0.9,1.5,0.9c0.9,0,1.5-0.3,1.8-0.9
				c0.2-0.3,0.4-0.8,0.6-1.5l1.3-6.2h2.1l-1.3,6.2c-0.2,1.1-0.6,1.9-1,2.5c-0.9,1.1-2.2,1.6-3.9,1.6c-1.8,0-2.8-0.5-3.2-1.6
				c-0.2-0.6-0.2-1.4,0-2.5L277.1,239.2z"/>
			<path d="M287.5,239.2h2.1l-1.8,8.3h5l-0.4,1.8h-7.1L287.5,239.2z"/>
			<path d="M302.7,239.2l-0.4,1.8h-3l-1.8,8.3h-2.1l1.8-8.3h-3l0.4-1.8H302.7z"/>
			<path d="M303.9,249.4h-2.1l2.1-10.1h2.1L303.9,249.4z"/>
			<path d="M311.2,245.7h-2.1l-0.8,3.6h-2.1l2.1-10.1h4.4c1,0,1.8,0.3,2.3,0.8c0.5,0.5,0.6,1.3,0.4,2.4c-0.3,1.2-0.7,2-1.4,2.5
				C313.3,245.5,312.4,245.7,311.2,245.7z M312.1,241h-2l-0.6,3h2c0.5,0,0.9-0.1,1.2-0.4c0.3-0.2,0.5-0.6,0.7-1.2
				c0.1-0.5,0.1-0.9-0.2-1.1C312.9,241.1,312.6,241,312.1,241z"/>
			<path d="M318,239.2h2.1l-1.8,8.3h5l-0.4,1.8h-7.1L318,239.2z"/>
			<path d="M333.9,241h-5.4l-0.5,2.1h4.9l-0.4,1.8h-4.9l-0.5,2.6h5.6l-0.4,1.8h-7.7l2.1-10.1h7.4L333.9,241z"/>
			<path d="M340.6,239.2h2.1l-1.8,8.3h5l-0.4,1.8h-7.1L340.6,239.2z"/>
			<path d="M349.2,249.4h-2.1l2.1-10.1h2.1L349.2,249.4z"/>
			<path d="M353.6,246.2c0,0.5,0,0.8,0.2,1c0.3,0.4,0.8,0.6,1.6,0.6c0.5,0,0.9-0.1,1.2-0.2c0.6-0.2,1-0.6,1.1-1.2
				c0.1-0.3,0-0.6-0.3-0.8c-0.3-0.2-0.7-0.3-1.3-0.5l-1-0.2c-1-0.2-1.7-0.5-2-0.8c-0.6-0.5-0.8-1.2-0.6-2.2c0.2-0.9,0.7-1.7,1.5-2.3
				c0.8-0.6,1.8-0.9,3.1-0.9c1.1,0,1.9,0.3,2.5,0.8c0.6,0.6,0.9,1.4,0.7,2.5h-2c0.1-0.6-0.1-1-0.5-1.3c-0.3-0.2-0.7-0.3-1.2-0.3
				c-0.5,0-1,0.1-1.4,0.3c-0.4,0.2-0.6,0.5-0.7,0.9c-0.1,0.4,0,0.6,0.3,0.8c0.2,0.1,0.6,0.3,1.2,0.4l1.7,0.4
				c0.7,0.2,1.2,0.4,1.6,0.7c0.5,0.5,0.7,1.2,0.5,2.1c-0.2,0.9-0.7,1.7-1.6,2.3c-0.8,0.6-1.9,0.9-3.2,0.9c-1.3,0-2.3-0.3-2.9-0.9
				c-0.6-0.6-0.8-1.4-0.6-2.5H353.6z"/>
			<path d="M370.6,239.2l-0.4,1.8h-3l-1.8,8.3h-2.1l1.8-8.3h-3l0.4-1.8H370.6z"/>
			<path d="M371.9,249.4h-2.1l2.1-10.1h2.1L371.9,249.4z"/>
			<path d="M376.2,239.2h2.2l2.5,7.1l1.5-7.1h2l-2.1,10.1h-2.1l-2.6-7.2l-1.5,7.2h-2L376.2,239.2z"/>
			<path d="M392.8,242.4c0-0.7-0.3-1.2-0.9-1.4c-0.3-0.2-0.7-0.2-1.1-0.2c-0.8,0-1.5,0.3-2.2,0.9c-0.7,0.6-1.1,1.5-1.4,2.8
				c-0.3,1.2-0.2,2.1,0.3,2.6c0.5,0.5,1,0.8,1.8,0.8c0.7,0,1.3-0.2,1.9-0.6c0.5-0.4,0.9-0.9,1.2-1.6H390l0.4-1.7h4.2l-1.2,5.4H392
				l0.1-1.3c-0.5,0.5-1,0.8-1.3,1c-0.6,0.3-1.4,0.5-2.2,0.5c-1.3,0-2.3-0.5-3-1.4c-0.7-0.9-0.9-2.2-0.5-3.8c0.3-1.6,1.1-3,2.2-3.9
				c1.1-1,2.4-1.5,3.9-1.5c1.3,0,2.3,0.3,2.9,1c0.6,0.7,0.9,1.5,0.8,2.4H392.8z"/>
			<path d="M402,246.2c0,0.5,0,0.8,0.2,1c0.3,0.4,0.8,0.6,1.6,0.6c0.5,0,0.9-0.1,1.2-0.2c0.6-0.2,1-0.6,1.1-1.2
				c0.1-0.3,0-0.6-0.3-0.8c-0.3-0.2-0.7-0.3-1.3-0.5l-1-0.2c-1-0.2-1.7-0.5-2-0.8c-0.6-0.5-0.8-1.2-0.6-2.2c0.2-0.9,0.7-1.7,1.5-2.3
				c0.8-0.6,1.8-0.9,3.1-0.9c1.1,0,1.9,0.3,2.5,0.8c0.6,0.6,0.9,1.4,0.7,2.5h-2c0.1-0.6-0.1-1-0.5-1.3c-0.3-0.2-0.7-0.3-1.2-0.3
				c-0.5,0-1,0.1-1.4,0.3c-0.4,0.2-0.6,0.5-0.7,0.9c-0.1,0.4,0,0.6,0.3,0.8c0.2,0.1,0.6,0.3,1.2,0.4l1.7,0.4
				c0.7,0.2,1.2,0.4,1.6,0.7c0.5,0.5,0.7,1.2,0.5,2.1c-0.2,0.9-0.7,1.7-1.6,2.3c-0.8,0.6-1.9,0.9-3.2,0.9c-1.3,0-2.3-0.3-2.9-0.9
				c-0.6-0.6-0.8-1.4-0.6-2.5H402z"/>
			<path d="M418.7,241h-5.4l-0.5,2.1h4.9l-0.4,1.8h-4.9l-0.5,2.6h5.6l-0.4,1.8h-7.7l2.1-10.1h7.4L418.7,241z"/>
			<path d="M428.7,240.2c0.2,0.3,0.3,0.5,0.3,0.9c0.1,0.3,0.1,0.7,0,1.1c-0.1,0.5-0.3,1-0.7,1.4c-0.3,0.5-0.8,0.8-1.4,1
				c0.4,0.2,0.7,0.5,0.8,0.8c0.1,0.3,0.1,0.9,0,1.6l-0.1,0.7c-0.1,0.5-0.1,0.8-0.1,0.9c0,0.3,0.1,0.5,0.3,0.6l0,0.3h-2.3
				c0-0.2,0-0.4,0-0.5c0-0.3,0-0.6,0.1-0.9l0.2-0.9c0.1-0.6,0.1-1.1-0.1-1.3c-0.2-0.2-0.6-0.3-1.2-0.3h-2.2l-0.8,4h-2.1l2.1-10.1h5
				c0.7,0,1.2,0.1,1.6,0.3C428.2,239.7,428.5,239.9,428.7,240.2z M423,241l-0.6,2.7h2.4c0.5,0,0.8-0.1,1.1-0.2
				c0.5-0.2,0.8-0.6,0.9-1.1c0.1-0.6,0-1-0.4-1.2c-0.2-0.1-0.5-0.2-1-0.2H423z"/>
			<path d="M437.4,239.2h2.2l-5.6,10.1h-2l-1.3-10.1h2.3l0.6,7.7L437.4,239.2z"/>
			<path d="M440.8,249.4h-2.1l2.1-10.1h2.1L440.8,249.4z"/>
			<path d="M446,240.3c1-0.8,2.1-1.2,3.4-1.2c1.7,0,2.8,0.6,3.4,1.7c0.3,0.6,0.4,1.3,0.3,1.9h-2.1c0-0.5-0.1-0.9-0.3-1.1
				c-0.3-0.4-0.8-0.7-1.6-0.7c-0.8,0-1.4,0.3-2,0.9c-0.6,0.6-1,1.5-1.2,2.6c-0.2,1.1-0.2,2,0.2,2.6c0.3,0.6,0.9,0.8,1.6,0.8
				c0.7,0,1.4-0.2,1.9-0.7c0.3-0.3,0.5-0.7,0.8-1.2h2.1c-0.4,1.1-1.1,2-2,2.7c-0.9,0.7-1.9,1-3.1,1c-1.5,0-2.5-0.5-3.1-1.4
				c-0.6-0.9-0.8-2.2-0.4-3.9C444.1,242.6,444.8,241.3,446,240.3z"/>
			<path d="M462.7,241h-5.4l-0.5,2.1h4.9l-0.4,1.8h-4.9l-0.5,2.6h5.6l-0.4,1.8h-7.7l2.1-10.1h7.4L462.7,241z"/>
		</g>
		<path d="M463.3,315.1c-3,0-5.4,2.4-5.4,5.4c0,3,2.4,5.4,5.4,5.4c3,0,5.4-2.4,5.4-5.4C468.7,317.5,466.3,315.1,463.3,315.1z
			 M463.3,325c-2.5,0-4.5-2-4.5-4.5c0-2.5,2-4.5,4.5-4.5c2.5,0,4.5,2,4.5,4.5C467.8,323,465.8,325,463.3,325z"/>
		<g>
			<path d="M462.5,321.1v2.3h-0.9v-5.7h1.6c0.7,0,1.3,0.1,1.6,0.4s0.5,0.7,0.5,1.2c0,0.7-0.4,1.2-1.1,1.5l1.6,2.5h-1.1l-1.4-2.3
				H462.5z M462.5,320.4h0.6c0.4,0,0.7-0.1,0.9-0.2c0.2-0.2,0.3-0.4,0.3-0.7c0-0.3-0.1-0.6-0.3-0.7c-0.2-0.1-0.5-0.2-0.9-0.2h-0.6
				V320.4z"/>
		</g>
	</g>
</g>
<g id="guides">
</g>
</svg>
