<?xml version="1.0" encoding="utf-8"?>
<!-- Generator: Adobe Illustrator 18.1.1, SVG Export Plug-In . SVG Version: 6.00 Build 0)  -->
<!DOCTYPE svg PUBLIC "-//W3C//DTD SVG 1.1//EN" "http://www.w3.org/Graphics/SVG/1.1/DTD/svg11.dtd">
<svg version="1.1" xmlns="http://www.w3.org/2000/svg" xmlns:xlink="http://www.w3.org/1999/xlink" x="0px" y="0px"
	 viewBox="0 0 512 512" enable-background="new 0 0 512 512" xml:space="preserve">
<g id="svg">
	<g>
		<rect x="14.8" y="166" width="57.5" height="180.4"/>
		<path d="M408.2,256.2L408.2,256.2l86.6-90.2h-68.4h-8.9h-0.1l0,0.2L362,229.2l-55-62.7V166h0H298h-56.4c-1.9,0-3.5,0-4.9,0h-4.9
			h-57.5h-39.8H98.6H80v181h18.6h35.9h39.8h57.5h6.9c0.4,0,0.7,0,1.1,0H298h8.9h0v-1.1l55-62.7l55.2,63.4l0.1,0.5h0.1h8.9h68.4
			l-86.5-90.4L408.2,256.2z M134,302v-90h40.2h57.5h1.6c5,0,18.5,0.9,24.9,8.3c6.9,7.9,6.7,30.7,6.6,35.7h0c0,0,0,0.1,0,0.5
			c0,0.4,0,0.5,0,0.5h0c0.2,6,0.1,27.8-6.8,35.7c-7.9,9.1-27,9.3-27,9.3h-56.8H134z"/>
	</g>
</g>
<g id="guides">
</g>
</svg>
