<?xml version="1.0" encoding="utf-8"?>
<!-- Generator: Adobe Illustrator 18.1.1, SVG Export Plug-In . SVG Version: 6.00 Build 0)  -->
<!DOCTYPE svg PUBLIC "-//W3C//DTD SVG 1.1//EN" "http://www.w3.org/Graphics/SVG/1.1/DTD/svg11.dtd">
<svg version="1.1" xmlns="http://www.w3.org/2000/svg" xmlns:xlink="http://www.w3.org/1999/xlink" x="0px" y="0px"
	 viewBox="0 0 512 512" enable-background="new 0 0 512 512" xml:space="preserve">
<g id="svg">
	<g>
		<path d="M341.1,16.3l-168,0.2H71.4v389.8h371.7V16.1L341.1,16.3z M267.2,71.8h27l4.2,0.2l3.9,0.2l3.9,0.5l3.9,0.5l3.7,0.7l3.9,1
			l3.7,1l3.7,1l3.4,1.5l3.4,1.5l3.4,1.5l3.2,1.7l2.5,1.2l0.7,0.5l2.9,2l2.9,2.2l2.7,2.2l2.7,2.5l2.5,2.7l2.5,2.7l2.2,2.9l2.2,2.9
			l1.7,3.2l1.7,3.4l1.7,3.4l1.2,3.7l1.2,3.9l1,3.9l0.7,4.2l0.5,4.2l0.2,4.4l0.2,4.7l-0.2,4.4l-0.2,4.4l-0.5,4.2l-0.7,3.9l-1,3.9
			l-1.2,3.7l-1.2,3.4l-1.5,3.4l-1.7,3.4l-2,2.9l-2,2.9l-2.2,2.9l-2.5,2.7l-2.5,2.7l-2.5,2.5l-2.9,2.2l-2.7,2l-3.2,2.2l-1,0.5
			l-2.2,1.2l-6.4,3.4l-3.7,1.5l-3.4,1.2l-3.7,1.2l-3.7,1l-3.7,0.7l-3.9,0.7l-3.9,0.7l-3.9,0.5l-4.2,0.2l-3.9,0.2h-27.3V71.8z
			 M224.2,360H122V71.8h102.2V360z M267.2,360.2V220.9l73.9,69.5l73.7,69.8H267.2z"/>
		<path d="M425.9,476.9v-16c4.7-1.5,7.1-5.7,7.1-12c0-3.4-0.5-5.9-1.5-7.6c-1-1.7-2.5-2.9-3.9-3.4c-0.5,0-1.2-0.2-1.7-0.2v-5.4h2
			c4.2,0,7.4,0.2,9.6,1c2.2,0.7,4.2,2.2,5.9,3.9c2.5,2.5,3.7,5.6,3.7,9.8c0,5.2-1.2,8.8-4.2,11.5c-2.9,2.5-6.4,4.2-10.1,5.2
			c2.2,3.7,4.2,6.9,5.9,9.6c2,2.7,4.2,6.6,7.4,11.5c3.2,4.9,5.4,8.4,6.6,10.3c-2.9-0.5-5.7-0.5-8.1-0.5c-2.5,0-5.4,0-8.6,0.5
			c-1.7-3.2-3.9-6.9-6.1-11.3C428.1,481.1,426.9,478.9,425.9,476.9z M425.9,432.2v5.4c-1.2-0.2-2.7-0.5-4.2-0.5h-3.2v24.6
			c0.5,0,1.2,0,2.2,0c2,0,3.7-0.2,5.2-0.7v16c-0.7-1.2-1.5-2.5-2-3.4c-1.5-2.5-2.9-5.2-4.7-7.9h-0.7v29.5c-2.7-0.5-4.9-0.5-6.9-0.5
			c-1.7,0-4.2,0-6.9,0.5v-62.9H425.9L425.9,432.2z M360,496.1v-5.4c4.9-0.2,8.8-2,11.8-4.9c2.9-3.4,5.2-7.1,6.1-11.8
			c1.2-4.4,1.7-8.6,1.7-12.5c0-4.9-0.7-9.3-2.2-13.3c-1.5-3.9-3.7-6.9-6.6-9.1c-2.9-2.2-6.1-3.2-10.1-3.2l0,0c-0.2,0-0.5,0-0.7,0
			v-5.4h0.2c5.9,0,11.1,1,15.5,2.7c4.4,1.7,8.1,4.2,10.8,7.1c2.9,2.9,5.2,6.4,6.4,10.3c1.5,3.9,2.2,8.1,2.2,12.5
			c0,5.2-1,9.8-2.7,13.8c-1.7,3.9-4.4,7.4-7.6,10.1c-3.4,2.9-7.1,5.2-11.5,6.6C369.4,494.8,364.7,495.8,360,496.1z M360,430.5v5.4
			c-6.6,0.2-11.5,3.2-14.7,8.6c-3.4,5.7-4.9,12.8-4.9,21.9c0,4.9,1,9.3,2.7,13c1.7,3.7,3.9,6.6,6.9,8.4c2.7,2,5.9,2.9,9.3,2.9
			c0.2,0,0.5,0,0.7,0v5.4c-0.2,0-0.7,0-1,0c-4.7,0-9.6-0.7-14.7-2.7c-5.2-1.7-9.8-4.9-13.5-9.6c-3.9-4.7-5.9-11.1-5.9-18.9
			c0-0.2,0.2-0.7,0.2-1.2c0-3.9,0.7-7.9,2.2-11.8c1.2-3.9,3.2-7.4,6.1-10.6c2.7-3.2,6.4-5.9,10.8-7.9
			C348.7,431.7,353.9,430.7,360,430.5L360,430.5z M194.7,475.9v-5.7h8.4l-8.1-21.4l-0.2,0.5v-17.7l0.2-0.5c0.5,0.2,1,0.2,1.5,0.2
			c0.7,0,1.2,0,1.7,0.2c2.2-0.2,3.4-0.2,3.7-0.5l25.5,63.6c-1,0-2.5,0-4.2-0.2c-2,0-3.2,0-4.2,0c-0.7,0-2,0-3.7,0
			c-1.7,0.2-2.9,0.2-3.7,0.2c-2-6.1-4.2-12.5-6.4-18.9H194.7L194.7,475.9z M236,432.2c2.5,0,4.7,0.2,6.6,0.5c0.2,0,1.2,0,2.7-0.2
			c1.7,0,3.2-0.2,4.4-0.2V488c5.9,0,13-0.5,21.1-1.2c-0.2,1-0.5,2.2-0.7,3.9c0,1.2,0.2,2.5,0.5,3.9H236V432.2L236,432.2z
			 M289.8,494.8v-56.3c-6.1,0-11.8,0.5-17,1.5c0-0.5,0-1.2,0-2c0.2-0.7,0.2-1.2,0.2-1.7c0-0.2,0-1-0.2-2c0-1,0-1.7,0-2.2h46.9
			c0,1.5-0.2,2.7-0.5,4.2c0.2,1.5,0.5,2.7,0.5,3.7c-7.4-1-13-1.5-16.2-1.5v56.3c-1,0-2.2,0-3.7-0.2c-1.5,0-2.7,0-3.4,0
			c-0.7,0-2,0-3.2,0C291.7,494.8,290.8,494.8,289.8,494.8z M93.8,432.2h2c4.2,0,7.6,0.2,9.6,1c2.2,0.7,4.2,2.2,5.9,3.9
			c2.5,2.5,3.9,5.6,3.9,9.8c0,5.2-1.5,8.8-4.4,11.5c-2.9,2.5-6.1,4.2-10.1,5.2c2.2,3.7,4.2,6.9,5.9,9.6c2,2.7,4.4,6.6,7.4,11.5
			c3.2,4.9,5.4,8.4,6.6,10.3c-2.9-0.5-5.6-0.5-8.1-0.5c-2.5,0-5.4,0-8.6,0.5c-1.7-3.2-3.7-6.9-6.1-11.3c-1.5-2.7-2.9-4.9-3.9-6.9
			v-16c4.7-1.5,7.1-5.7,7.1-12c0-3.4-0.5-5.9-1.5-7.6c-1-1.7-2.2-2.9-3.9-3.4c-0.5,0-1.2-0.2-1.7-0.2V432.2L93.8,432.2z
			 M194.7,431.7v17.7l-8.4,20.9h8.4v5.7h-10.8c-0.5,1-1.2,3.2-2.5,6.1c-1,3.2-2,5.7-2.5,7.6c-0.7,1.7-1.2,3.4-1.7,5.2
			c-0.5,0-1.2,0-2.2-0.2c-1,0-1.7,0-2.2,0c-0.5,0-1.2,0-2,0c-1,0.2-1.7,0.2-2.2,0.2L194.7,431.7L194.7,431.7z M128.9,494.6v-62.4
			H164c-0.2,1-0.5,2.2-0.7,4.2c0,0.7,0.2,2,0.5,3.7c-6.1-0.7-12.3-1.2-17.9-1.2h-3.2v19.7h12c3.4,0,6.4-0.5,8.8-1
			c-0.2,1-0.2,1.7-0.5,2.5c0,0.7,0,1.5-0.2,2c0.2,1.2,0.5,2.5,0.7,3.7c-2.9-0.5-6.6-1-11.3-1h-9.6V488c7.4,0,14.5-0.5,21.4-1.2
			c-0.5,1.5-0.7,2.9-0.7,4.2c0.2,1,0.2,2.2,0.5,3.7H128.9z M72.6,495.1v-62.9h21.1v5.4c-1.2-0.2-2.7-0.5-4.2-0.5h-3.2v24.6
			c0.5,0,1.2,0,2.2,0c2,0,3.7-0.2,5.2-0.7v16c-0.7-1.2-1.5-2.5-2-3.4c-1.5-2.5-2.9-5.2-4.7-7.9h-0.7v29.5c-2.7-0.5-4.9-0.5-6.9-0.5
			C77.8,494.6,75.3,494.6,72.6,495.1z"/>
		<g>
			<path d="M466.6,406.1c-7.8,0-14.1,6.3-14.1,14.1c0,7.8,6.3,14.1,14.1,14.1c7.8,0,14.1-6.3,14.1-14.1
				C480.7,412.4,474.4,406.1,466.6,406.1z M466.6,431.8c-6.4,0-11.6-5.2-11.6-11.6s5.2-11.6,11.6-11.6s11.6,5.2,11.6,11.6
				S473,431.8,466.6,431.8z"/>
			<g>
				<path d="M464.6,421.7v5.9h-2.4v-14.7h4.2c1.9,0,3.3,0.4,4.2,1.1c0.9,0.7,1.4,1.8,1.4,3.2c0,1.8-1,3.1-2.9,3.9l4.2,6.5h-2.7
					l-3.5-5.9H464.6z M464.6,419.7h1.7c1.1,0,1.9-0.2,2.4-0.6c0.5-0.4,0.8-1,0.8-1.9c0-0.8-0.3-1.4-0.8-1.8
					c-0.5-0.4-1.4-0.5-2.5-0.5h-1.6V419.7z"/>
			</g>
		</g>
	</g>
</g>
<g id="guides">
</g>
</svg>
