<?xml version="1.0" encoding="utf-8"?>
<!-- Generator: Adobe Illustrator 18.1.1, SVG Export Plug-In . SVG Version: 6.00 Build 0)  -->
<!DOCTYPE svg PUBLIC "-//W3C//DTD SVG 1.1//EN" "http://www.w3.org/Graphics/SVG/1.1/DTD/svg11.dtd">
<svg version="1.1" xmlns="http://www.w3.org/2000/svg" xmlns:xlink="http://www.w3.org/1999/xlink" x="0px" y="0px"
	 viewBox="0 0 512 512" enable-background="new 0 0 512 512" xml:space="preserve">
<g id="svg">
	<g>
		<rect x="41.2" y="210.8" width="63.6" height="148"/>
		<path d="M272.7,232.8C246.5,209.5,228,211,228,211h-50h-41v64h49v-46.7l66.4,56.9L186,341.8V295h-49v65h41h50
			c0,0,18.4,1.2,44.6-22.1c20.5-18.2,22.3-42.6,22.1-52.4C294.9,275.6,293.1,251,272.7,232.8z"/>
		<polygon points="482.3,363.2 410,363.2 292.1,210.8 364.4,210.8 		"/>
		<polygon points="292.1,363.2 364.4,363.2 482.3,210.8 410,210.8 		"/>
		<polygon points="496.4,200.1 256.4,148.4 256.4,148.4 256.4,148.4 256.4,148.4 256.4,148.4 16.4,200.1 18.1,208.2 256.4,156.8 
			494.7,208.2 		"/>
	</g>
</g>
<g id="guides">
</g>
</svg>
