<?xml version="1.0" encoding="utf-8"?>
<!-- Generator: Adobe Illustrator 18.1.1, SVG Export Plug-In . SVG Version: 6.00 Build 0)  -->
<!DOCTYPE svg PUBLIC "-//W3C//DTD SVG 1.1//EN" "http://www.w3.org/Graphics/SVG/1.1/DTD/svg11.dtd">
<svg version="1.1" xmlns="http://www.w3.org/2000/svg" xmlns:xlink="http://www.w3.org/1999/xlink" x="0px" y="0px"
	 viewBox="0 0 512 512" enable-background="new 0 0 512 512" xml:space="preserve">
<g id="svg">
	<g>
		<path d="M100.8,199.7l9.7,92l42.3-92h58.3l-26,147.3h-43.5c2.9-16.9,7.2-39.5,12.6-67.8l7.4-26.8h-0.3L117.6,347H84.1l-10.5-94.6
			h-0.5l-1.5,20.8c-1.7,15.1-5.7,39.7-12,73.8H16.7l25.8-147.3H100.8L100.8,199.7z M238.5,199.7h48.3l-19.8,113h66.3l-6,34.3H212.5
			L238.5,199.7L238.5,199.7z M443,242.4c0-8.5-6-12.8-18-12.8c-9.5,0-14.9,2.8-16,8c0,2.8,0.9,4.9,2.8,6.8c1.8,1.8,4.2,3.4,7.2,4.6
			c2.9,1.4,6.5,2.5,10.5,3.5c3.8,0.9,7.5,1.8,11.1,2.8c9.1,2.3,16.9,5.1,23.1,8.3c6.3,3.1,11.2,7.1,14.5,11.7
			c3.4,4.6,5.1,10.2,5.1,16.6c0,0.9,0,2.3-0.2,4.5c-0.2,2.2-0.3,3.5-0.5,4.3c-1.7,9.1-5.1,16.9-10,23.5
			c-5.1,6.5-11.1,11.7-18.1,15.7c-7.2,3.8-14.9,6.8-23.4,8.6c-8.3,1.7-17.1,2.6-25.8,2.6c-11.1,0-20.9-1.8-29.7-5.4
			c-8.6-3.7-15.5-8.8-20.3-15.5c-4.9-6.6-7.4-14.5-7.4-23.2c0-1.2,0.2-3.1,0.5-5.5h46.4c0,5.8,2,9.8,6,12.3c4,2.3,8.6,3.4,13.8,3.4
			c12-0.5,18.8-3.8,20.5-10c0.2-1.1,0.3-1.8,0.3-2.5c0-2.2-1.1-4.2-3.2-5.8c-2.2-1.5-4.9-3.1-8.3-4.2c-3.2-1.1-8-2.6-14.5-4.3
			c-10.3-2.5-18.8-5.1-25.4-7.8c-6.6-2.8-12-6.8-16.3-11.8c-4.2-5.1-6.3-11.5-6.5-19.5c0.6-5.5,1.1-9.1,1.2-10.6
			c1.5-8.5,5.4-16.1,11.7-22.9c6.3-6.9,14.6-12.3,24.8-16.1c10.3-3.8,22.1-5.7,35.2-5.7c7.7,0,14.8,0.8,21.2,2.3
			c6.5,1.5,12.3,4.2,17.4,7.7c4.9,3.5,8.9,8.3,11.8,14.5c2.9,6.2,4.5,13.5,4.5,22.1H443z"/>
		<g>
			<path d="M63.6,160.3h6.7l-4.7,22.3h-4.3l3.2-15.1c0.1-0.4,0.2-1,0.4-1.8c0.2-0.8,0.3-1.4,0.4-1.8L57,182.6h-4.5l-0.2-18.7
				c-0.1,0.4-0.2,1-0.4,1.8c-0.2,0.8-0.3,1.4-0.4,1.8l-3.2,15.1H44l4.7-22.3h6.8l0.3,17.5L63.6,160.3z"/>
			<path d="M75.2,160.3h4.7L77,174c-0.3,1.5-0.4,2.6-0.2,3.4c0.3,1.2,1.4,1.9,3.3,1.9c1.9,0,3.2-0.6,4.1-1.9
				c0.5-0.7,0.9-1.8,1.3-3.4l2.9-13.7h4.7L90.1,174c-0.5,2.4-1.3,4.2-2.3,5.5c-1.9,2.4-4.8,3.6-8.6,3.6c-3.9,0-6.2-1.2-7.1-3.6
				c-0.5-1.3-0.4-3.2,0.1-5.5L75.2,160.3z"/>
			<path d="M98.1,160.3h4.7l-3.9,18.3h11l-0.8,4H93.3L98.1,160.3z"/>
			<path d="M131.4,160.3l-0.8,3.9h-6.7l-3.9,18.3h-4.7l3.9-18.3h-6.7l0.8-3.9H131.4z"/>
			<path d="M134.2,182.6h-4.6l4.7-22.3h4.6L134.2,182.6z"/>
			<path d="M150.3,174.6h-4.7l-1.7,8h-4.6l4.7-22.3h9.7c2.2,0,3.9,0.6,5,1.7c1.1,1.1,1.4,2.9,0.9,5.3c-0.6,2.6-1.6,4.5-3.2,5.6
				C154.7,174,152.7,174.6,150.3,174.6z M152.1,164.2h-4.3l-1.4,6.6h4.3c1.1,0,2-0.3,2.7-0.8s1.2-1.4,1.5-2.5c0.3-1.2,0.1-2-0.4-2.5
				C154,164.4,153.2,164.2,152.1,164.2z"/>
			<path d="M165,160.3h4.7l-3.9,18.3h11l-0.8,4h-15.7L165,160.3z"/>
			<path d="M200.1,164.3h-11.8l-1,4.7h10.8l-0.8,3.9h-10.8l-1.2,5.7h12.3l-0.8,4h-16.9l4.7-22.3H201L200.1,164.3z"/>
			<path d="M214.8,160.3h4.7l-3.9,18.3h11l-0.8,4h-15.7L214.8,160.3z"/>
			<path d="M233.8,182.6h-4.6l4.7-22.3h4.6L233.8,182.6z"/>
			<path d="M243.5,175.7c-0.1,1,0,1.8,0.3,2.3c0.6,0.9,1.8,1.4,3.6,1.4c1.1,0,2-0.1,2.7-0.4c1.4-0.5,2.2-1.3,2.5-2.6
				c0.2-0.7,0-1.3-0.6-1.7c-0.6-0.4-1.5-0.7-2.8-1l-2.3-0.5c-2.2-0.5-3.7-1.1-4.4-1.7c-1.3-1-1.7-2.6-1.2-4.8c0.4-2,1.5-3.7,3.2-5
				c1.7-1.3,4-2,6.8-2c2.3,0,4.2,0.6,5.6,1.9c1.4,1.2,1.9,3,1.5,5.4H254c0.2-1.3-0.2-2.3-1.1-2.9c-0.6-0.4-1.5-0.6-2.6-0.6
				c-1.2,0-2.2,0.2-3,0.7c-0.8,0.5-1.3,1.2-1.5,2c-0.2,0.8,0.1,1.4,0.7,1.8c0.4,0.3,1.3,0.6,2.7,0.9l3.6,0.9
				c1.6,0.4,2.7,0.9,3.5,1.6c1.1,1,1.5,2.6,1,4.5c-0.4,2-1.6,3.7-3.4,5.1c-1.8,1.3-4.2,2-7,2c-2.9,0-5-0.7-6.4-2
				c-1.4-1.3-1.8-3.1-1.3-5.5H243.5z"/>
			<path d="M280.8,160.3l-0.8,3.9h-6.7l-3.9,18.3h-4.7l3.9-18.3h-6.7l0.8-3.9H280.8z"/>
			<path d="M283.6,182.6H279l4.7-22.3h4.6L283.6,182.6z"/>
			<path d="M293.2,160.3h4.9l5.6,15.5l3.3-15.5h4.3l-4.7,22.3h-4.7l-5.7-15.8l-3.4,15.8h-4.3L293.2,160.3z"/>
			<path d="M329.6,167.3c0-1.5-0.7-2.6-1.9-3.2c-0.7-0.3-1.5-0.5-2.4-0.5c-1.8,0-3.4,0.7-4.8,2c-1.4,1.4-2.5,3.4-3,6.1
				c-0.6,2.7-0.4,4.7,0.6,5.8c1,1.1,2.3,1.7,3.9,1.7c1.6,0,2.9-0.5,4.1-1.4c1.2-0.9,2.1-2.1,2.6-3.5h-5.2l0.8-3.7h9.3l-2.5,11.9H328
				l0.1-2.8c-1.1,1.1-2.1,1.8-2.9,2.2c-1.4,0.8-3,1.1-4.8,1.1c-3,0-5.2-1-6.6-3.1c-1.5-2.1-1.9-4.9-1.1-8.4c0.8-3.6,2.4-6.5,4.8-8.7
				c2.4-2.2,5.3-3.3,8.6-3.3c2.8,0,4.9,0.7,6.4,2.2c1.4,1.4,2,3.2,1.8,5.4H329.6z"/>
			<path d="M350,175.7c-0.1,1,0,1.8,0.3,2.3c0.6,0.9,1.8,1.4,3.6,1.4c1.1,0,2-0.1,2.7-0.4c1.4-0.5,2.2-1.3,2.5-2.6
				c0.2-0.7,0-1.3-0.6-1.7c-0.6-0.4-1.5-0.7-2.8-1l-2.3-0.5c-2.2-0.5-3.7-1.1-4.4-1.7c-1.3-1-1.7-2.6-1.2-4.8c0.4-2,1.5-3.7,3.2-5
				c1.7-1.3,4-2,6.8-2c2.3,0,4.2,0.6,5.6,1.9c1.4,1.2,1.9,3,1.5,5.4h-4.5c0.2-1.3-0.2-2.3-1.1-2.9c-0.6-0.4-1.5-0.6-2.6-0.6
				c-1.2,0-2.2,0.2-3,0.7c-0.8,0.5-1.3,1.2-1.5,2c-0.2,0.8,0.1,1.4,0.7,1.8c0.4,0.3,1.3,0.6,2.7,0.9l3.6,0.9
				c1.6,0.4,2.7,0.9,3.5,1.6c1.1,1,1.5,2.6,1,4.5c-0.4,2-1.6,3.7-3.4,5.1c-1.8,1.3-4.2,2-7,2c-2.9,0-5-0.7-6.4-2
				c-1.4-1.3-1.8-3.1-1.3-5.5H350z"/>
			<path d="M386.7,164.3h-11.8l-1,4.7h10.8l-0.8,3.9h-10.8l-1.2,5.7h12.3l-0.8,4h-16.9l4.7-22.3h16.3L386.7,164.3z"/>
			<path d="M408.6,162.5c0.4,0.6,0.6,1.2,0.7,1.9c0.1,0.7,0.1,1.5-0.1,2.3c-0.2,1.1-0.7,2.1-1.5,3.1c-0.8,1-1.8,1.7-3.1,2.2
				c0.9,0.4,1.5,1,1.8,1.8c0.3,0.8,0.2,1.9-0.1,3.5l-0.3,1.5c-0.2,1-0.3,1.7-0.3,2.1c0,0.6,0.2,1,0.6,1.3l-0.1,0.6h-5.1
				c0-0.5-0.1-0.9-0.1-1.2c0-0.6,0.1-1.3,0.2-1.9l0.4-2.1c0.3-1.4,0.2-2.4-0.2-2.8c-0.4-0.5-1.3-0.7-2.7-0.7h-4.8l-1.8,8.7h-4.5
				l4.7-22.3h10.9c1.6,0,2.7,0.2,3.5,0.6C407.6,161.3,408.2,161.8,408.6,162.5z M396.1,164.2l-1.3,6h5.3c1,0,1.9-0.1,2.4-0.4
				c1-0.4,1.7-1.3,1.9-2.5c0.3-1.3,0-2.3-0.8-2.7c-0.5-0.3-1.2-0.4-2.2-0.4H396.1z"/>
			<path d="M427.7,160.3h4.8l-12.3,22.3h-4.4l-2.8-22.3h5l1.2,16.9L427.7,160.3z"/>
			<path d="M435.4,182.6h-4.6l4.7-22.3h4.6L435.4,182.6z"/>
			<path d="M446.7,162.7c2.2-1.8,4.7-2.7,7.5-2.7c3.7,0,6.2,1.2,7.4,3.7c0.7,1.4,0.9,2.8,0.6,4.2h-4.7c-0.1-1.1-0.3-1.9-0.6-2.4
				c-0.6-1-1.8-1.5-3.4-1.5c-1.7,0-3.2,0.7-4.4,2c-1.3,1.4-2.2,3.3-2.7,5.8c-0.5,2.5-0.4,4.4,0.3,5.6c0.8,1.2,1.9,1.9,3.5,1.9
				c1.6,0,3-0.5,4.1-1.6c0.6-0.6,1.2-1.4,1.7-2.6h4.6c-0.9,2.4-2.4,4.4-4.3,5.9c-2,1.5-4.3,2.3-6.9,2.3c-3.2,0-5.5-1-6.9-3.1
				c-1.4-2.1-1.7-4.9-0.9-8.5C442.5,167.8,444.1,164.8,446.7,162.7z"/>
			<path d="M483.5,164.3h-11.8l-1,4.7h10.8l-0.8,3.9h-10.8l-1.2,5.7H481l-0.8,4h-16.9l4.7-22.3h16.3L483.5,164.3z"/>
		</g>
		<path d="M484.7,327.2c-6.6,0-12,5.4-12,12s5.4,12,12,12c6.6,0,12-5.4,12-12S491.3,327.2,484.7,327.2z M484.7,349.1
			c-5.5,0-9.9-4.4-9.9-9.9c0-5.5,4.4-9.9,9.9-9.9s9.9,4.4,9.9,9.9C494.6,344.6,490.2,349.1,484.7,349.1z"/>
		<g>
			<path d="M483.1,340.5v5h-2v-12.5h3.5c1.6,0,2.8,0.3,3.6,0.9c0.8,0.6,1.2,1.5,1.2,2.7c0,1.6-0.8,2.7-2.4,3.3l3.5,5.5h-2.3l-3-5
				H483.1z M483.1,338.8h1.4c1,0,1.6-0.2,2.1-0.5s0.6-0.9,0.6-1.6c0-0.7-0.2-1.2-0.7-1.5c-0.5-0.3-1.2-0.5-2.1-0.5h-1.4V338.8z"/>
		</g>
	</g>
</g>
<g id="guides">
</g>
</svg>
