<?xml version="1.0" standalone="no"?>
<!DOCTYPE svg PUBLIC "-//W3C//DTD SVG 1.1//EN" "http://www.w3.org/Graphics/SVG/1.1/DTD/svg11.dtd">
<svg xmlns="http://www.w3.org/2000/svg">
<defs>
<font id="untitled-font-2" horiz-adv-x="512">
<font-face font-family="untitled-font-2" units-per-em="512" ascent="480" descent="-32"/>
<missing-glyph horiz-adv-x="512" />

<glyph unicode="&#57378;" d="M90 315l11-98 45 98 62 0-28-156-46 0c3 18 7 42 13 72l8 28 0 0-47-100-36 0-11 100 0 0-2-22c-2-16-6-42-13-78l-45 0 27 156z m147 0l51 0-21-120 71 0-7-36-122 0z m218-45c0 9-7 14-20 14-10 0-15-3-17-9 0-3 1-5 3-7 2-2 5-4 8-5 3-2 7-3 11-4 4-1 8-2 12-3 10-2 18-5 25-9 6-3 11-7 15-12 4-5 5-11 5-18 0-1 0-2 0-5 0-2 0-3 0-4-2-10-6-18-11-25-5-7-12-13-19-17-8-4-16-7-25-9-9-2-18-3-28-3-11 0-22 2-31 6-9 4-17 9-22 16-5 8-8 16-8 25 0 1 1 3 1 6l49 0c0-6 2-10 7-13 4-3 9-4 14-4 13 1 20 4 22 11 0 1 0 2 0 3 0 2-1 4-3 6-2 1-5 3-9 4-3 1-8 3-15 5-11 3-20 5-27 8-7 3-13 7-18 13-4 5-6 12-7 20 1 6 2 10 2 12 1 9 5 17 12 24 7 7 16 13 27 17 11 4 23 6 37 6 8 0 16-1 23-2 7-2 13-5 18-8 5-4 10-9 13-16 3-6 4-14 4-23l-48 0z m-404 87l7 0-5-23-5 0 4 16c0 0 0 1 0 2 0 0 0 1 0 2l-8-20-5 0 0 20c0-1-1-2-1-2 0-1 0-2 0-2l-4-16-4 0 5 23 7 0 0-18z m12 0l5 0-3-14c0-2 0-3 0-4 0-1 1-2 3-2 2 0 4 1 5 2 0 1 1 2 1 4l3 14 5 0-3-14c-1-3-2-5-3-6-2-3-5-4-9-4-4 0-6 1-7 4-1 1-1 3 0 6z m24 0l5 0-4-19 12 0-1-4-17 0z m36 0l-1-4-7 0-4-19-5 0 4 19-7 0 1 4z m3-23l-5 0 5 23 5 0z m17 8l-5 0-2-8-5 0 5 23 11 0c2 0 4 0 5-1 1-2 1-4 1-6-1-3-2-5-4-6-1-1-3-2-6-2z m2 11l-5 0-1-7 4 0c2 0 3 0 3 1 1 1 2 1 2 3 0 1 0 2-1 2 0 1-1 1-2 1z m14 4l5 0-5-19 12 0-1-4-16 0z m37-4l-13 0-1-5 12 0-1-4-12 0-1-6 13 0-1-4-18 0 5 23 18 0z m16 4l5 0-5-19 12 0-1-4-16 0z m20-23l-5 0 5 23 5 0z m10 7c0-1 0-2 0-3 1 0 2-1 4-1 1 0 2 0 3 0 2 1 3 2 3 3 0 1 0 2-1 2 0 0-1 1-3 1l-2 1c-3 0-4 1-5 1-1 1-2 3-1 6 0 2 1 3 3 5 2 1 4 2 7 2 3 0 5-1 6-2 2-1 2-3 2-6l-5 0c1 2 0 3-1 3 0 1-1 1-3 1-1 0-2 0-3-1-1 0-1-1-1-2-1-1 0-1 0-2 1 0 2-1 3-1l4-1c2 0 3-1 4-1 1-2 1-3 1-5-1-2-2-4-4-6-2-1-4-2-7-2-3 0-6 1-7 2-2 2-2 4-1 6l4 0z m40 16l-1-4-7 0-4-19-5 0 4 19-7 0 1 4z m3-23l-5 0 5 23 5 0z m10 23l5 0 6-16 4 16 4 0-5-23-5 0-6 16-3-16-5 0z m39-7c0 1-1 3-2 3-1 1-2 1-3 1-2 0-3-1-5-2-1-2-3-4-3-7-1-3 0-5 1-6 1-1 2-2 4-2 1 0 3 1 4 2 1 1 2 2 3 3l-6 0 1 4 10 0-3-12-3 0 0 3c-1-1-2-2-3-3-1-1-3-1-5-1-3 0-6 1-7 3-2 3-2 6-1 9 1 4 2 7 5 10 2 2 6 3 9 3 3 0 5-1 7-2 1-2 2-4 2-6l-5 0z m22-9c-1-1 0-2 0-3 0 0 2-1 4-1 1 0 2 0 3 0 1 1 2 2 2 3 0 1 0 2 0 2-1 0-2 1-3 1l-3 1c-2 0-4 1-5 1-1 1-1 3-1 6 1 2 2 3 4 5 1 1 4 2 7 2 2 0 4-1 6-2 1-1 2-3 1-6l-4 0c0 2-1 3-2 3 0 1-1 1-2 1-2 0-3 0-4-1 0 0-1-1-1-2 0-1 0-1 1-2 0 0 1-1 2-1l4-1c2 0 3-1 4-1 1-2 2-3 1-5 0-2-2-4-4-6-1-1-4-2-7-2-3 0-5 1-7 2-1 2-2 4-1 6l5 0z m39 12l-13 0-1-5 11 0 0-4-12 0-1-6 13 0-1-4-18 0 5 23 17 0z m23 2c0-1 1-1 1-2 0-1 0-2 0-2-1-2-1-3-2-4-1-1-2-2-3-2 1-1 1-1 2-2 0-1 0-2-1-4l0-1c0-1 0-2 0-3 0 0 0-1 0-1l0-1-5 0c0 1 0 1 0 2 0 0 0 1 0 2l0 2c1 1 1 2 0 3 0 0-1 1-3 1l-5 0-2-10-4 0 5 24 11 0c2 0 3 0 4-1 1 0 1 0 2-1z m-13-2l-2-6 6 0c1 0 2 0 2 0 1 1 2 2 2 3 1 1 0 2 0 3-1 0-2 0-3 0z m33 4l5 0-13-23-4 0-3 23 5 0 1-18z m8-23l-4 0 5 23 4 0z m12 21c3 2 5 3 8 3 4 0 7-2 8-4 1-2 1-3 1-5l-5 0c0 1 0 2-1 3 0 1-2 1-3 1-2 0-4 0-5-2-1-1-2-3-3-6 0-3 0-5 0-6 1-1 2-2 4-2 2 0 3 1 5 2 0 0 1 1 1 3l5 0c-1-3-2-5-4-7-2-1-5-2-8-2-3 0-6 1-7 3-2 2-2 5-1 9 1 4 3 8 5 10z m40-2l-13 0-1-5 12 0-1-4-12 0-1-6 13 0-1-4-18 0 5 23 17 0z m1-173c-7 0-13-6-13-13 0-7 6-13 13-13 7 0 13 6 13 13 0 7-6 13-13 13z m0-24c-6 0-11 5-11 11 0 6 5 10 11 10 6 0 10-4 10-10 0-6-4-11-10-11z m-2 10l0-6-2 0 0 14 4 0c2 0 3-1 4-1 0-1 1-2 1-3 0-2-1-3-3-4l4-6-2 0-4 6-2 0z m0 1l2 0c1 0 1 1 2 1 0 0 1 1 1 2 0 0-1 1-1 1-1 0-1 1-2 1l-2 0 0-5z"/>
<glyph unicode="&#57347;" d="M406 305l0 63c0 22-8 40-23 56-16 16-35 23-56 23l-142 0c-22 0-40-7-56-23-15-16-23-34-23-56l0-63c0-21 7-38 22-51 14-14 31-21 50-21l93 0 0-116 50 116 7 0c22 0 40 7 55 20 15 14 23 31 23 52z"/>
<glyph unicode="&#57364;" d="M256 451c32 0 58-11 78-32 20-21 30-46 30-76 0-20-9-50-27-90-18-39-36-74-54-104l-27-44c-3 5-7 11-12 19-5 8-13 22-25 44-13 22-24 43-33 62-10 19-18 40-26 61-8 22-12 39-12 52 0 30 10 55 30 76 20 21 46 32 78 32z m0-154c15 0 27 5 38 15 11 11 16 23 16 38 0 14-5 27-16 37-11 11-23 16-38 16-15 0-27-5-38-16-10-10-15-22-15-37 0-15 5-27 15-38 11-10 23-15 38-15z"/>
<glyph unicode="&#57361;" d="M286 382l0-60-20 0 0 35-40 0 0 25z m-180-70l240 0 0-107 53 67 7 0-60-80-240 0z m120-170l0 40 30 0 0-40z"/>
<glyph unicode="&#57366;" d="M149 409l35-37c-12-3-20-8-26-15-4-3-7-6-9-11-3-4-5-8-6-11l-1-5-36 36 0 43z m109-49l-112-97c-1 4-2 9-2 16 0 7 2 17 6 32 4 15 11 27 21 36 11 9 23 14 38 16 14 2 26 2 35 0z m-116-117l13-16 137 118-14 14z m146 54l-6 5c-3 2-5 5-7 8-1 3-1 5 0 7 1 2 4 3 7 3 3 0 6-1 9-3l6-5c7-5 9-11 6-16-1-1-3-2-6-2-3 0-6 1-9 3z m51-33l-11 8c-7 6-9 11-6 15 1 2 4 3 7 3 3 0 6-2 9-4l9-8c7-6 10-11 7-15-3-4-8-4-15 1z m-80-3l-6 5c-6 7-8 12-4 16 4 4 9 3 15-2l6-6c5-6 7-11 4-15-4-5-9-4-15 2z m-32-24l-4 7c-5 8-5 13 0 16 5 3 10 1 14-6l4-7c5-8 5-13 0-16-5-3-10-1-14 6z m163-7l-11 8c-8 6-10 11-7 16 3 5 8 4 16-1l11-8c7-5 8-10 5-15-3-4-7-4-14 0z m-86-9l-9 9c-6 6-7 11-4 15 1 2 3 3 6 3 3 0 6-2 9-5l10-9c6-8 7-13 3-16-3-4-8-3-15 3z m-118-5l-3 7c-4 8-4 13 1 16 2 2 4 2 7 0 2-2 4-4 6-8l4-7c4-8 3-13-2-16-2-1-5-1-7 1-3 2-5 4-6 7z m76-29l-7 11c-5 7-5 13 0 16 4 3 9 1 14-6l6-11c5-8 5-14 0-17-4-2-9 0-13 7z m88-6l-9 9c-6 6-7 11-4 15 4 5 9 4 15-3l9-9c6-5 7-10 4-15-2-2-4-2-7-2-3 1-6 2-8 5z m-137-20l-6 13c-3 8-2 13 3 16 5 2 9 0 13-8l5-12c3-9 3-15-2-17-2-1-5 0-7 1-3 2-5 4-6 7z m83-24l-6 12c-5 8-5 14 0 16 4 2 9 0 13-7l7-11c2-3 3-6 3-9 0-3-1-6-3-7-2-1-4-1-7 0-3 1-5 3-7 6z m-57-27l-4 9c-5 9-4 14 1 17 4 2 9-1 13-9l6-12c3-6 2-10-3-12-5-2-9 0-13 7z"/>
<glyph unicode="&#57365;" d="M255 403c41 0 77-14 107-44 29-30 44-65 44-106 0-41-15-76-44-105-30-29-65-44-107-44-41 0-76 15-105 44-29 29-44 64-44 105 0 41 15 76 44 106 29 30 64 44 105 44z m-17-201l36 0c-1 5 0 12 2 20 1 6 7 12 17 19 25 20 38 39 38 57 0 18-8 33-23 44-15 11-32 17-53 17-23 0-41-6-53-17-13-12-20-28-21-49l37 0c5 23 18 35 38 35 11 0 20-3 27-8 6-5 10-11 10-20 0-6-2-12-4-16-3-4-11-10-22-19-12-9-20-18-24-27-4-6-5-18-5-36z m0-55l37 0 0 30-37 0z"/>
<glyph unicode="&#57367;" d="M381 309l-69-69c0-3 1-8 1-13 1-6 0-14-3-26-2-11-7-20-14-25l-50 48-101-101-37-20 19 38 102 101-49 49c5 8 13 13 24 16 10 3 20 3 28 2l12-1 69 69-10 9 18 18 87-88-17-17z"/>
<glyph unicode="&#57368;" d="M106 112l14 0 0 80 49 0 0-80 23 0 0 140 53 0 0-140 23 0 0 230 52 0 0-230 22 0 0 170 52 0 0-170 12 0 0-10-300 0z"/>
<glyph unicode="&#57348;" d="M199 222l25 24c-12 17-18 36-18 56 0 28 9 52 29 71 19 19 43 29 71 29 27 0 51-10 70-29 20-19 30-43 30-71 0-27-10-51-30-70-19-20-43-30-70-30-22 0-41 6-57 17l-23-24z m107 5c21 0 38 8 53 22 14 15 22 33 22 53 0 21-8 39-22 53-15 15-32 22-53 22-21 0-38-7-53-22-15-14-22-32-22-53 0-20 7-38 22-53 15-14 32-22 53-22z m-199-89l35-35 88 88-35 35z"/>
<glyph unicode="&#57350;" d="M259 452c32 0 59-11 79-32 20-21 31-47 31-77 0-13-4-30-12-52-7-21-16-42-27-63-11-21-21-41-32-61-11-19-20-35-28-47l-11-18c-3 5-7 11-12 19-5 8-14 24-26 46-13 22-24 43-34 62-10 19-18 40-26 62-8 22-12 39-12 52 0 30 10 56 30 77 21 21 47 32 80 32z m38-52l-22 0 0-20-17 19-71-67 24 0 0-70 34 0 0 49 24 0 0-49 34 0 0 70 23 0-29 29z"/>
<glyph unicode="&#57369;" d="M126 190l0 118-20 0 0 37 149 102 151-102 0-37-20 0 0-118z m32 36l196 0 0 103-98 63-98-63z m149 104l-102 0 0-30 102 0z m0-46l-102 0 0-30 102 0z m-139-132l2 2c-2 1-4 2-4 2 1 3 2 4 2 4 0 1 1 3 1 5 0 2-1 4-1 6-2 4-6 6-10 6-5 0-8-1-10-5-1-2-1-4-1-7 0-2 0-4 1-6 2-3 5-5 10-5 3 0 5 0 6 1z m96 13c0-3 1-5 3-8 2-2 5-3 8-3 7 0 11 4 11 11 0 8-4 12-11 12-7 0-11-4-11-12z m50-3l-2-1c0-5 3-7 10-7 5 0 8 2 8 6 0 3-1 5-4 6 0 0-1 1-3 1-2 0-4 1-5 1-2 1-2 2-2 3 0 2 1 3 4 3 4 0 6-1 6-4l3 0c0 2-1 4-2 5-2 1-3 2-5 2l-2 0c-5 0-8-2-8-6 0-3 4-5 12-8 2 0 3-1 3-3 0-2-2-4-5-4-2 0-4 1-5 2-2 2-3 3-3 4z m69 1l0-5-7-2c-3 0-6 2-7 4-1 2-1 4-1 5 0 7 3 10 8 10 4 0 7-2 7-6l3 0c0 6-4 8-10 8-7 0-11-4-11-12 0-2 0-4 1-6 2-4 5-6 10-6 4 0 7 2 10 4l0 8-10 0 0-2z m-240 1l0 3-12 0 0 7 12 0 0 3-16 0 0-23 17 0 0 2-13 0 0 8z m45 13l0-14c0-4-2-6-6-6-4 0-6 2-6 6l0 14-3 0 0-14c0-4 1-6 2-7 1-1 3-2 7-2 6 0 9 3 9 9l0 14z m27-23l-10 23-3 0-8-23 3 0 2 7 10 0 2-7z m2 23l0-23 14 0 0 2-11 0 0 21z m43-23l0 23-3 0 0-10-12 0 0 10-3 0 0-23 3 0 0 11 12 0 0-11z m45 23l0-14c0-4-2-7-6-7-4 0-6 3-6 7l0 14-3 0 0-14c0-6 3-9 9-9 6 0 9 3 9 9l0 14z m32-23l0 23-3 0 0-23z m24 23l-4 0 0-18-11 18-3 0 0-23 3 0 0 18 11-18 4 0z m-202-17l-1-2c1 0 2 0 3-1-1 0-2-1-3-1-2 0-4 1-6 3-2 2-2 4-2 6 0 3 0 5 2 7 1 2 3 3 6 3 2 0 4-1 6-3 1-2 2-4 2-7 0-2-1-4-3-7-1 1-2 2-4 2z m41 3l4 12 4-12z m67 2c0 7 3 10 8 10 5 0 8-3 8-10 0-6-3-9-8-9-2 0-4 1-6 3-1 2-2 4-2 6z m-140-34c0-4 1-7 4-10 2-2 5-4 9-4 3 0 6 2 8 4 3 2 4 6 4 10 0 9-4 13-12 13-4 0-7-1-9-4-3-2-4-5-4-9z m77 0c0-9 4-14 13-14 8 0 12 5 12 14 0 9-4 13-12 13-9 0-13-4-13-13z m-44-13l0 10c11 0 16 3 16 8 0 2-1 4-2 5-2 2-4 2-5 2l-3 1-10 0 0-26z m25 0l0 10c10 0 16 3 16 8 0 3-1 5-3 6-1 1-3 1-4 1l-3 1-10 0 0-26z m52 11l6 0c1 0 3-2 6-6l3-5 4 0-4 7c-2 3-4 5-5 5 5 0 7 2 7 7 0 5-3 7-9 7l-12 0 0-26 4 0z m20 15l0-4 9 0 0-22 3 0 0 22 8 0 0 4z m41 0l0-15c0-5-2-8-7-8-4 0-6 3-6 8l0 15-4 0 0-15c0-8 3-12 10-12 7 0 11 4 11 12l0 15z m30 0l-4 0 0-21-13 21-4 0 0-26 3 0 0 20 14-20 4 0z m10-26l0 26-4 0 0-26z m4 26l0-4 8 0 0-22 4 0 0 22 9 0 0 4z m33-11l-7 11-5 0 10-15 0-11 4 0 0 11 10 15-4 0z m-244-2c0 7 3 10 9 10 6 0 9-3 9-10 0-7-3-10-9-10-6 0-9 3-9 10z m77 0c0 7 3 10 9 10 5 0 8-3 8-10 0-7-3-10-8-10-6 0-9 3-9 10z m29 10l8 0c3 0 5-1 5-4 0-3-2-5-5-5l-8 0z m-77-9l0 8c8 1 12 0 12-4 0-3-4-5-12-4z m25 0l0 8c8 1 12 0 12-4 0-3-4-4-12-4z"/>
<glyph unicode="&#57376;" d="M146 402l0-220 80 0 0 220z m110-111l30 0c15 2 29 8 41 18 12 11 19 23 19 36 0 15-6 28-19 40-12 12-26 17-41 17l-30 0z m0-109l105 0-105 109z m150-24c0 3-2 5-5 5-4 0-6-2-6-5 0-4 2-6 6-6 3 0 5 2 5 6z m-9 0c0 2 1 3 4 3 2 0 4-1 4-3 0-3-2-4-4-4-3 0-4 1-4 4z m3-1l1 0 1-2 1 0-1 2c0 1 1 2 1 2 0 1-1 1-3 1l-1 0 0-5 1 0z m0 1l0 1c1 0 1 0 1 0 0-1 0-1-1-1z m-94-31c0 7 2 13 7 17 4 5 9 7 16 7 7 0 12-2 17-7 5-4 7-10 7-17 0-7-2-12-7-17-5-5-11-8-17-8-6 0-12 3-16 8-5 5-7 11-7 17z m-200 23l13 0c11 0 17-5 17-14 0-8-4-12-12-14l12-18-5 0-14 22c9 0 14 3 14 10 0 7-4 10-13 10l-7 0 0-42-5 0z m52-42l19 0 0-4-25 0 0 46 25 0 0-5-19 0 0-16 19 0 0-4-19 0z m72-4l-5 0-5 14-21 0-5-14-5 0 18 46 6 0z m18 4l16 0 0-4-20 0 0 46 4 0z m25 42l23 0 0-4-9 0 0-42-5 0 0 42-9 0z m96 0l11 0c11 0 17-5 18-14 0-3-1-6-3-9-3-2-6-4-9-5l12-18-6 0-14 22c9 0 14 3 14 10 0 7-5 10-14 10l-6 0 0-42-3 0z m-159-4l-10-23 19 0z m102-19c0-12 5-19 17-19 5 0 10 2 13 5 4 4 6 8 6 14 0 5-2 10-6 13-4 4-8 6-13 6-5 0-9-2-12-6-4-3-5-8-5-13z"/>
<glyph unicode="&#57351;" d="M175 462l162 0c6 0 12-2 17-6 5-5 7-10 7-17l0-314c0-5-2-10-7-15-5-5-11-8-17-8l-162 0c-7 0-13 3-17 8-5 5-7 10-7 15l0 314c0 7 2 12 7 17 4 4 10 6 17 6z m81-23c-15 0-22-1-22-5 0-4 7-6 22-6 14 0 22 2 22 6 0 4-8 5-22 5z m-84-27l0-250 169 0 0 250z m83-295c7 0 11 4 11 12 0 7-4 11-11 11-5 0-8-2-10-6-2-3-2-7 0-11 2-4 5-6 10-6z"/>
<glyph unicode="&#57352;" d="M266 195l-9 2c-1 0-1-1-2-2-1-1-2-2-3-4-2-1-3-2-4-2-2 0-3 1-5 4-2 3-4 5-4 8-2 5-5 10-9 13-16-9-33-12-52-9-18 3-34 11-47 24-17 17-25 37-25 61 0 24 8 44 25 60 17 17 37 25 60 25 24 0 44-8 61-25 11-11 18-23 22-38 4-15 4-30 0-45 0-4 1-7 4-10 2-3 5-5 9-6 3-2 6-3 9-3 2 0 3-1 3-1 0 0-1-2-3-5-2-2-3-4-4-4l28-25 82-72 4-32 0-1c0-1 0-1 0-2 0 0-1 0-2-1-1-1-2-1-3-1-1 0-3-1-6-1-2 0-5-1-9-1-11 0-17 1-18 2l-7 6-1 14-7 6-15 1-14 13 0 19-9 7-16-3-16 13-2 2c0 1 0 1 0 2 0 1 0 2 1 4 0 2 1 4 1 5 0 1-1 2-2 4-1 1-2 2-3 3l-1 2z m-93 113c3 4 4 8 4 13 0 5-1 9-4 12-4 4-8 5-13 5-5 0-9-1-12-5-4-3-6-7-6-12 0-5 2-9 6-13 3-3 7-5 12-5 5 0 9 2 13 5z"/>
<glyph unicode="&#57346;" d="M159 462l196 0c6 0 11-2 15-7 4-4 6-10 6-16l0-315c0-6-2-11-6-15-4-4-9-7-15-7l-77 0 0 110-44 0 0-110-76 0c-6 0-12 3-16 7-4 4-6 9-6 15l0 315c0 6 2 12 7 16 4 5 10 7 16 7z m7-110l44 0 0 60-44 0z m68 0l44 0 0 60-44 0z m69 0l43 0 0 60-43 0z m-137-99l44 0 0 59-44 0z m68 0l44 0 0 59-44 0z m69 0l43 0 0 59-43 0z m-137-102l44 0 0 61-44 0z m137 0l43 0 0 61-43 0z"/>
<glyph unicode="&#57381;" d="M41 301l64 0 0-148-64 0z m232-22c-26 23-45 22-45 22l-91 0 0-64 49 0 0 47 66-57-66-57 0 47-49 0 0-65 91 0c0 0 18-1 45 22 20 18 22 43 22 52 0 10-2 35-22 53z m209-130l-72 0-118 152 72 0z m-190 0l72 0 118 152-72 0z m204 163l-240 52-240-52 2-8 238 51 239-51z"/>
<glyph unicode="&#57353;" d="M121 387l-15 0 0-270 300 0 0 15-285 0z m235-41l6-39c0-3-1-5-5-6l-6-1c-4-1-6 1-7 4l-1 13-68-104c-2-3-5-3-8-1l-48 42c-3 2-5 2-6-1l-53-66c-3-3-6-4-9-2l-5 4c-3 3-3 6 0 9l62 80c3 3 6 3 9 1l47-41c2-3 5-2 8 1l55 86-13-3c-4-1-6 0-7 3l-2 6c-1 3 0 5 4 7l40 11c4 2 6 1 7-3z"/>
<glyph unicode="&#57360;" d="M386 342l-133-94-126 94z m20-170l-104 85 104 77z m-300 161l101-76-101-85z m14-171l103 84 30-25 30 25 105-84z"/>
<glyph unicode="&#57380;" d="M15 346l57 0 0-180-57 0z m393-90l87 90-78 0 0 0-55-63-55 62 0 1-65 0c-2 0-4 0-5 0l-157 0 0-181 159 0c0 0 0 0 1 0l67 0 0 1 55 63 55-64 0 0 78 0-87 90z m-274-46l0 90 99 0c5 0 19-1 25-8 7-8 7-31 7-36 0 0 0 0 0-1 0 0 0 0 0 0 0-6 0-28-7-36-8-9-27-9-27-9z"/>
<glyph unicode="&#57382;" d="M365 470l-76-147 117 0-214-269 64 202-114 0 69 236c-111-21-195-118-195-235 0-133 107-240 240-240 132 0 240 107 240 240 0 93-53 173-131 213z"/>
<glyph unicode="&#57345;" d="M391 220l-25 5c-4 13-11 24-21 32-10 9-22 13-35 13-11 0-22-3-31-9-10-5-18-13-23-22-12 21-29 31-51 31-14 0-26-4-37-13-11-8-18-19-22-32l-25-5 0 122 270 0z m-225-58l180 0 0-30 60 0 0 71-6 1c-4 1-10 3-18 4-9 2-19 4-30 5-11 2-26 4-43 5-17 1-35 1-53 1-27 0-53-1-78-4-25-3-44-6-55-9l-17-4 0-70 60 0z"/>
<glyph unicode="&#57362;" d="M215 340l22 19-63 74-22-20z m155-213l-16-12c-1-1-2-2-3-3-2-1-5-2-10-4-5-2-10-3-15-3-6 0-13 1-22 4-9 3-18 7-27 13-15 11-30 23-45 37-16 14-28 26-36 35l-12 13c-28 34-51 70-68 107-8 18-11 33-10 44 1 11 4 19 9 24l7 8 14 12 64-74c-1 0-2-1-3-3-1-2-2-5-4-11-1-6-2-12-1-18 0-6 3-15 8-25 4-10 11-21 20-32l1 0c9-11 18-20 27-27 9-6 17-10 24-12 7-1 13-2 18-2 5 0 9 1 12 2l4 2z m14 10l22 20-62 74-23-18z"/>
<glyph unicode="&#57377;" d="M341 496l-168-1-102 0 0-389 372 0 0 390z m-74-56l27 0 4 0 4 0 4-1 4 0 4-1 4-1 3-1 4-1 7-3 3-1 4-2 2-1 1-1 3-2 3-2 2-2 3-3 2-2 3-3 2-3 2-3 2-3 3-7 2-4 1-4 1-3 1-5 0-4 0-4 0-5 0-4 0-5 0-4-1-4-1-4-1-3-2-4-1-3-2-4-4-5-2-3-5-6-2-2-3-2-3-2-3-3-1 0-2-1-7-4-4-1-3-1-4-2-3-1-4 0-8-2-4 0-4 0-4-1-27 0 0 143z m-43-288l-102 0 0 288 102 0z m43 0l0 139 74-69 74-70z m159-117l0 16c5 2 7 6 7 12 0 3 0 6-1 8-1 1-3 3-4 3-1 0-2 0-2 0l0 6 2 0c4 0 7-1 10-1 2-1 4-3 5-4 3-3 4-6 4-10 0-5-1-9-4-12-3-2-6-4-10-5 2-3 4-7 6-9 2-3 4-7 7-12 3-5 6-8 7-10-3 0-6 0-8 0-3 0-6 0-9 0-2 3-4 7-6 11-2 3-3 5-4 7z m0 45l0-6c-1 1-3 1-4 1l-3 0 0-25c0 0 1 0 2 0 2 0 3 0 5 1l0-16c-1 1-2 2-2 3-2 3-3 6-5 8l0 0 0-29c-3 0-5 0-7 0-2 0-5 0-7 0l0 63 21 0z m-66-64l0 5c5 0 9 2 12 5 3 4 5 7 6 12 1 4 2 9 2 12 0 5-1 10-3 14-1 4-3 7-6 9-3 2-6 3-10 3 0 0-1 0-1 0l0 5 0 0c6 0 11-1 16-2 4-2 8-4 11-7 2-3 5-7 6-11 1-4 2-8 2-12 0-5-1-10-3-14-1-4-4-7-7-10-4-3-7-5-12-7-4-1-8-2-13-2z m0 65l0-5c-7 0-11-3-15-9-3-5-5-12-5-21 0-5 1-10 3-13 2-4 4-7 7-9 3-2 6-3 9-3 1 0 1 0 1 0l0-5c0 0-1 0-1 0-5 0-10 1-15 3-5 1-9 4-13 9-4 5-6 11-6 19 0 0 0 1 0 1 0 4 1 8 2 12 2 4 4 7 6 11 3 3 7 6 11 8 5 1 10 2 16 2z m-165-45l0 6 8 0-8 21 0 0 0 17 0 1c1 0 1 0 2 0 0 0 1 0 1-1 2 1 4 1 4 1l25-64c-1 0-2 0-4 1-2 0-3 0-4 0-1 0-2 0-4 0-1-1-3-1-3-1-2 6-5 13-7 19l-10 0z m41 44c3 0 5 0 7-1 0 0 1 0 2 0 2 0 4 1 5 1l0-56c6 0 13 0 21 1 0-1-1-2-1-4 0-1 0-2 1-4l-35 0z m54-63l0 56c-6 0-12 0-17-1 0 0 0 1 0 2 0 1 0 1 0 2 0 0 0 1 0 2 0 1 0 1 0 2l47 0c0-2 0-3-1-4 0-2 1-3 1-4-8 1-13 1-16 1l0-56c-1 0-3 0-4 0-2 0-3 0-4 0 0 0-2 0-3 0-1 0-2 0-3 0z m-196 63l2 0c4 0 7 0 9-1 3-1 5-2 6-4 3-3 4-6 4-10 0-5-1-9-4-11-3-3-6-5-10-6 2-3 4-7 6-9 2-3 4-7 7-12 3-5 5-8 7-10-3 0-6 0-8 0-3 0-6 0-9 0-2 3-4 7-6 11-2 3-3 5-4 7l0 16c5 2 7 6 7 12 0 4 0 6-1 8-1 1-3 3-4 3-1 0-2 0-2 0l0 6z m101 0l0-17-9-21 9 0 0-6-11 0c-1-1-1-3-3-6-1-3-2-6-2-8-1-1-1-3-2-5 0 0-1 0-2 0-1 0-2 0-2 0-1 0-1 0-2 0-1 0-2 0-2 0z m-66-63l0 63 35 0c0-1 0-2-1-4 0-1 1-2 1-4-6 1-12 1-18 1l-3 0 0-20 12 0c3 0 6 1 9 1-1-1-1-1-1-2 0-1 0-2 0-2 0-1 0-3 1-4-3 1-7 1-12 1l-9 0 0-23c7 0 14 0 21 1 0-1-1-3-1-4 1-1 1-2 1-4l-35 0z m-56 0l0 63 21 0 0-6c-1 1-3 1-4 1l-4 0 0-25c1 0 2 0 3 0 2 0 3 0 5 1l0-16c-1 1-2 2-2 3-2 3-3 6-5 8l-1 0 0-29c-2 0-5 0-7 0-1 0-4 0-6 0z m394 89c-8 0-14-6-14-14 0-8 6-14 14-14 7 0 14 6 14 14 0 8-7 14-14 14z m0-26c-7 0-12 5-12 12 0 6 5 11 12 11 6 0 11-5 11-11 0-7-5-12-11-12z m-2 10l0-6-3 0 0 15 4 0c2 0 4 0 5-1 1-1 1-2 1-3 0-2-1-3-3-4l4-7-2 0-4 6z m0 2l1 0c1 0 2 0 3 1 0 0 1 1 1 2 0 1-1 1-1 2-1 0-2 0-3 0l-1 0z"/>
<glyph unicode="&#57379;" d="M216 303l0 66-152 0 0-66-48 0 0-163 480 0 0 163z m-148 63l145 0 0-171-145 0z m425-222l-472 0 0 154 43 0 0-106 152 0 0 106 276 0 0-154z m-329 202l-47-1-29 0 0-109 104 0 0 110z m-21-16l7 0 2 0 1 0 1 0 1 0 1-1 1 0 1 0 1 0 1-1 1 0 1-1 1 0 1 0 0-1 1 0 0-1 1 0 1-1 1-2 2-1 0-1 1-2 0-1 1-1 0-1 0-1 0-2 0-1 1-1-1-1 0-2 0-1 0-1 0-1-1-1 0-1 0-1-1-1-1-2 0 0-1-1-1-1 0-1-1 0-1-1-1 0 0 0-1-1-2-1-1 0-1 0-2-1-1 0-1 0-1-1-1 0-1 0-1 0-8 0 0 40z m-12-81l-29 0 0 81 29 0z m12 0l0 39 21-19 20-20-41 0z m44-32l0 4c2 1 2 2 2 4 0 1 0 1 0 2 0 0-1 1-1 1 0 0-1 0-1 0l0 1 1 0c1 0 2 0 3 0 0 0 1-1 1-1 1-1 1-2 1-3 0-1 0-2-1-3-1-1-2-1-3-1 1-1 1-2 2-3 0-1 1-2 2-3 1-2 1-3 2-3-1 0-2 0-3 0 0 0-1 0-2 0 0 1-1 2-2 3 0 1 0 1-1 2z m0 12l0-1c0 0-1 0-1 0l-1 0 0-7c0 0 0 0 1 0 0 0 1 0 1 0l0-4c0 0 0 0 0 1-1 0-1 1-2 2l0 0 0-8c-1 0-1 0-2 0 0 0-1 0-2 0l0 17z m-18-18l0 2c1 0 2 0 3 1 1 1 2 2 2 4 0 1 0 2 0 3 0 1 0 3 0 4-1 1-1 2-2 2-1 1-2 1-3 1 0 0 0 0 0 0l0 2 0 0c2 0 3-1 4-1 1-1 3-1 3-2 1-1 2-2 2-3 0-1 1-2 1-4 0-1-1-2-1-3-1-1-1-2-2-3-1-1-2-2-3-2-2 0-3-1-4-1z m0 19l0-2c-2 0-3-1-4-2-1-2-2-4-2-6 0-2 1-3 1-4 1-1 1-2 2-2 1-1 2-1 3-1 0 0 0 0 0 0l0-1c0 0 0 0 0 0-2 0-3 0-5 0-1 1-2 2-3 3-1 1-2 3-2 5 0 0 0 1 0 1 0 1 0 2 1 3 0 1 1 2 1 3 1 1 2 2 3 2 2 0 3 1 5 1z m-46-13l0 2 2 0-2 6 0 0 0 4 0 1c0-1 0-1 0-1 0 0 0 0 1 0 0 0 1 0 1 0l7-17c-1 0-1 0-2 0 0 0 0 0-1 0 0 0 0 0-1 0 0 0-1 0-1 0 0 1-1 3-2 5l-2 0z m11 12c1 0 1 0 2 0 0 0 0 0 1 0 0 0 1 0 1 0l0-15c2 0 4 0 6 0 0 0 0-1 0-1 0 0 0-1 0-1l-10 0z m15-17l0 15c-1 0-3 0-4 0 0 0 0 0 0 1 0 0 0 0 0 0 0 0 0 0 0 1 0 0 0 0 0 0l13 0c0 0 0-1 0-1 0 0 0-1 0-1-2 0-4 0-5 0l0-15c0 0 0 0-1 0 0 0-1 0-1 0 0 0 0 0-1 0 0 0-1 0-1 0z m-55 17l1 0c1 0 2 0 3 0 0 0 1-1 1-1 1-1 1-2 1-3 0-1 0-2-1-3-1-1-2-1-3-1 1-1 1-2 2-3 0-1 1-2 2-3 1-2 1-3 2-3-1 0-2 0-2 0-1 0-2 0-3 0 0 1-1 2-2 3 0 1 0 1-1 2l0 4c2 1 2 2 2 4 0 1 0 1 0 2 0 0-1 1-1 1 0 0 0 0-1 0z m29 0l0-5-3-5 3 0 0-2-3 0c0 0-1-1-1-2 0-1-1-1-1-2 0 0 0-1 0-1 0 0-1 0-1 0 0 0 0 0 0 0-1 0-1 0-1 0 0 0 0 0-1 0z m-19-17l0 17 10 0c0 0 0 0 0-1 0 0 0 0 0-1-2 0-4 0-5 0l-1 0 0-5 3 0c1 0 2 0 3 0 0 0 0 0 0-1 0 0 0 0 0 0 0 0 0-1 0-1-1 0-2 0-3 0l-3 0 0-6c2 0 4 0 6 0 0 0 0-1 0-1 0-1 0-1 0-1z m-16 0l0 17 6 0 0-1c0 0 0 0-1 0l-1 0 0-7c0 0 1 0 1 0 0 0 1 0 1 0l0-4c0 0 0 0 0 1-1 0-1 1-2 2l0 0 0-8c-1 0-1 0-2 0 0 0-1 0-2 0z m111 25c-3 0-4-2-4-4 0-2 2-4 4-4 2 0 4 2 4 4 0 2-2 4-4 4z m0-8c-2 0-4 2-4 4 0 1 2 3 4 3 1 0 3-2 3-3 0-2-2-4-3-4z m-1 3l0-1-1 0 0 4 2 0c0 0 1 0 1-1 0 0 0 0 0-1 0 0 0 0-1-1l2-1-1 0-1 1z m0 1l1 0c0 0 0 0 0 0 1 0 1 0 1 0 0 1-1 1-1 1 0 0 0 0 0 0l-1 0 0-1z m91 22l4-42 19 42 27 0-12-67-20 0c2 8 4 18 6 31l3 12 0 0-20-43-15 0-5 43 0 0 0-10c-1-6-3-18-6-33l-19 0 11 67z m62 0l22 0-9-52 30 0-2-15-52 0z m93-20c0 4-2 6-8 6-4 0-7-1-7-3 0-2 0-3 1-4 1 0 2-1 3-2 2 0 3-1 5-1 2-1 4-1 5-2 4-1 8-2 11-3 3-2 5-4 6-6 2-2 3-4 3-7 0-1 0-1 0-2-1-1-1-2-1-2 0-4-2-8-4-11-2-3-5-5-8-7-4-2-7-3-11-4-4-1-8-1-12-1-5 0-9 1-13 2-4 2-7 4-9 7-3 3-4 7-4 11 0 1 0 1 0 2l22 0c0-2 0-4 2-5 2-1 4-2 7-2 5 1 8 2 9 5 0 0 0 1 0 1 0 1-1 2-2 3-1 0-2 1-3 2-2 0-4 1-7 2-5 1-8 2-11 3-3 1-6 3-8 6-2 2-3 5-3 8 1 3 1 5 1 5 1 4 2 8 5 11 3 3 7 5 11 7 5 2 11 3 16 3 4 0 7-1 10-1 3-1 6-2 8-4 2-2 4-4 5-7 2-2 2-6 2-10z m-172 38l3 0-2-10-2 0 1 6c0 1 0 1 0 1 0 1 0 1 1 1l-4-8-2 0 0 8c0 0 0 0-1-1 0 0 0 0 0-1l-1-6-2 0 2 10 3 0 0-8z m5 0l2 0-1-6c0-1 0-2 0-2 0-1 0-1 1-1 1 0 2 0 2 1 0 0 1 1 1 2l1 6 2 0-1-6c0-2-1-2-1-3-1-1-2-2-4-2-2 0-3 1-3 2 0 1 0 1 0 3z m11 0l2 0-2-9 5 0-1-1-7 0z m15 0l-1-2-3 0-1-8-3 0 2 8-3 0 1 2z m1-10l-2 0 2 10 2 0z m7 3l-2 0-1-3-2 0 2 10 5 0c1 0 2-1 2-1 1-1 1-1 0-2 0-2 0-2-1-3-1-1-2-1-3-1z m1 5l-2 0 0-3 2 0c0 0 0 0 1 0 0 1 0 1 0 2 1 0 1 0 0 1 0 0 0 0-1 0z m6 2l2 0-2-9 5 0 0-1-7 0z m16-2l-5 0-1-2 5 0 0-2-5 0-1-3 6 0-1-1-7 0 2 10 7 0z m7 2l2 0-2-9 5 0 0-1-8 0z m8-10l-2 0 2 10 2 0z m5 3c0-1 0-1 0-1 0-1 1-1 1-1 1 0 1 0 2 0 0 1 1 1 1 2 0 0 0 0-1 0 0 1 0 1-1 1l-1 0c-1 0-2 1-2 1 0 0-1 1 0 2 0 1 0 2 1 2 1 1 2 1 3 1 1 0 2 0 3-1 0 0 1-1 0-2l-2 0c0 1 0 1 0 1 0 0-1 1-1 1-1 0-1-1-2-1 0 0 0 0 0-1-1 0 0 0 0 0 0-1 0-1 1-1l2 0c0 0 1-1 1-1 1 0 1-1 1-2 0-1-1-2-2-2-1-1-2-1-3-1-1 0-2 0-3 1 0 0-1 1 0 2l2 0z m17 7l-1-2-3 0-2-8-2 0 2 8-3 0 1 2z m1-10l-2 0 2 10 2 0z m4 10l2 0 3-7 1 7 2 0-2-10-2 0-2 7-2-7-2 0z m17-3c0 0 0 1-1 1 0 0-1 0-1 0-1 0-2 0-2-1-1 0-1-1-2-3 0-1 0-2 1-2 0-1 1-1 1-1 1 0 2 0 2 1 1 0 1 1 1 1l-2 0 0 2 5 0-2-5-1 0 0 1c0-1-1-1-1-1-1 0-2-1-2-1-2 0-3 1-3 2-1 1-1 2-1 4 0 1 1 3 2 3 1 1 3 2 4 2 2 0 3 0 3-1 1-1 1-2 1-2z m9-4c0-1 0-1 0-1 1-1 1-1 2-1 0 0 1 0 1 0 1 1 1 1 1 2 0 0 0 0 0 0 0 1-1 1-1 1l-1 0c-1 0-2 1-2 1-1 0-1 1-1 2 0 1 1 2 1 2 1 1 2 1 4 1 1 0 1 0 2-1 1 0 1-1 1-2l-2 0c0 1 0 1-1 1 0 0 0 1-1 1 0 0-1-1-1-1-1 0-1 0-1-1 0 0 0 0 0 0 0-1 1-1 1-1l2 0c1 0 1-1 2-1 0 0 0-1 0-2 0-1 0-2-1-2-1-1-2-1-4-1-1 0-2 0-2 1-1 0-1 1-1 2l2 0z m17 5l-6 0 0-2 5 0-1-2-5 0 0-3 6 0-1-1-8 0 3 10 7 0z m10 1c0-1 0-1 0-1 0 0 0-1 0-1 0-1 0-1-1-2 0 0 0 0-1-1 0 0 1 0 1 0 0-1 0-1 0-2l0-1c0 0 0-1 0-1 0 0 0 0 0 0l0-1-2 0c0 1 0 1 0 1 0 0 0 1 0 1l0 1c0 0 0 1 0 1 0 0-1 0-1 0l-3 0 0-4-3 0 3 10 5 0c0 0 1 0 1 0 0 0 1 0 1 0z m-6-1l-1-3 3 0c0 0 1 0 1 0 0 1 1 1 1 2 0 0 0 1-1 1 0 0 0 0-1 0z m14 2l3 0-6-10-2 0-1 10 2 0 1-8z m4-10l-2 0 2 10 2 0z m5 9c1 0 2 1 3 1 2 0 3-1 4-2 0 0 0-1 0-2l-2 0c0 1 0 1 0 1-1 1-1 1-2 1-1 0-1 0-2-1 0 0-1-1-1-2 0-2 0-2 0-3 0-1 1-1 2-1 0 0 1 0 2 1 0 0 0 1 0 1l3 0c-1-1-2-2-2-3-1 0-2-1-4-1-1 0-2 1-3 2 0 1 0 2 0 4 0 1 1 3 2 4z m17-1l-6 0 0-2 5 0-1-2-5 0 0-3 6 0-1-1-8 0 3 10 7 0z m0-74c-3 0-5-3-5-6 0-3 2-5 5-5 3 0 6 2 6 5 0 3-3 6-6 6z m0-10c-2 0-4 2-4 4 0 3 2 5 4 5 3 0 5-2 5-5 0-2-2-4-5-4z m0 4l0-2-1 0 0 5 1 0c1 0 2 0 2 0 0 0 0-1 0-1 0-1 0-2-1-2l2-2-1 0-2 2 0 0z m0 1l0 0c1 0 1 0 1 0 0 0 0 0 0 0 0 1 0 1 0 1 0 0 0 0-1 0l0 0z"/>
<glyph unicode="&#57363;" d="M275 287l0 150c29 0 55-8 78-24 23-15 40-36 53-61z m-20-34l130 65c12-22 18-45 18-68 0-36-12-68-36-97-14-15-31-28-51-37-19-9-40-14-61-14-41 0-76 14-105 43-29 29-44 63-44 104 0 41 15 75 44 104 29 29 64 43 105 43z"/>
<glyph unicode="&#57349;" d="M291 372l0-32-30 32-155-150 60 0 0-120 60 0 0 90 60 0 0-90 60 0 0 120 60 0-55 65 0 85z"/>
</font>
</defs>
</svg>
